<svg width="24" height="24" viewBox="0 0 24 24" fill="none" xmlns="http://www.w3.org/2000/svg">
<path d="M12 22C17.5228 22 22 17.5228 22 12C22 6.47715 17.5228 2 12 2C6.47715 2 2 6.47715 2 12C2 17.5228 6.47715 22 12 22Z" stroke="#A5A5A5" stroke-width="1.5" stroke-linecap="round" stroke-linejoin="round"/>
<path d="M12.0006 15.3331C14.3675 15.3331 16.2863 13.4144 16.2863 11.0474C16.2863 8.6805 14.3675 6.76172 12.0006 6.76172C9.63362 6.76172 7.71484 8.6805 7.71484 11.0474C7.71484 13.4144 9.63362 15.3331 12.0006 15.3331Z" stroke="#A5A5A5" stroke-width="1.5" stroke-linecap="round" stroke-linejoin="round"/>
<path d="M5.80859 20.0949C6.38898 18.6622 7.2746 17.459 8.36727 16.6184C9.45994 15.7779 10.717 15.333 11.9991 15.333C13.2812 15.333 14.5382 15.7779 15.6309 16.6184C16.7235 17.459 17.6092 18.6622 18.1895 20.0949" stroke="#A5A5A5" stroke-width="1.5" stroke-linecap="round" stroke-linejoin="round"/>
</svg>
